# This file uses centimeters as units for non-parametric coordinates.

mtllib baseSilla3.mtl
g default
v 4.431273 -0.598946 -4.043899
v 4.435542 -0.598946 -4.035519
v 4.442193 -0.598946 -4.028869
v 4.450572 -0.598946 -4.024599
v 4.459861 -0.598946 -4.023128
v 4.469150 -0.598946 -4.024599
v 4.477529 -0.598946 -4.028869
v 4.484180 -0.598946 -4.035519
v 4.488449 -0.598946 -4.043899
v 4.489920 -0.598946 -4.053187
v 4.488449 -0.598946 -4.062476
v 4.484180 -0.598946 -4.070856
v 4.477529 -0.598946 -4.077506
v 4.469150 -0.598946 -4.081776
v 4.459861 -0.598946 -4.083247
v 4.450572 -0.598946 -4.081776
v 4.442193 -0.598946 -4.077506
v 4.435542 -0.598946 -4.070856
v 4.431273 -0.598946 -4.062476
v 4.429802 -0.598946 -4.053187
v 4.431273 -0.593220 -4.043899
v 4.435542 -0.593220 -4.035519
v 4.442193 -0.593220 -4.028869
v 4.450572 -0.593220 -4.024599
v 4.459861 -0.593220 -4.023128
v 4.469150 -0.593220 -4.024599
v 4.477529 -0.593220 -4.028869
v 4.484180 -0.593220 -4.035519
v 4.488449 -0.593220 -4.043899
v 4.489920 -0.593220 -4.053187
v 4.488449 -0.593220 -4.062476
v 4.484180 -0.593220 -4.070856
v 4.477529 -0.593220 -4.077506
v 4.469150 -0.593220 -4.081776
v 4.459861 -0.593220 -4.083247
v 4.450572 -0.593220 -4.081776
v 4.442193 -0.593220 -4.077506
v 4.435542 -0.593220 -4.070856
v 4.431273 -0.593220 -4.062476
v 4.429802 -0.593220 -4.053187
v 4.459861 -0.598946 -4.053187
v 4.459861 -0.593220 -4.053187
vt -0.804921 0.688440
vt -0.804921 0.312500
vt -0.674429 0.312500
vt -0.674429 0.688440
vt -0.543937 0.312500
vt -0.543937 0.688440
vt -0.413445 0.312500
vt -0.413445 0.688440
vt -0.282953 0.312500
vt -0.282953 0.688440
vt -0.152461 0.312500
vt -0.152461 0.688440
vt -0.021969 0.312500
vt -0.021969 0.688440
vt 0.108524 0.312500
vt 0.108524 0.688440
vt 0.239016 0.312500
vt 0.239016 0.688440
vt 0.369508 0.312500
vt 0.369508 0.688440
vt 0.500000 0.312500
vt 0.500000 0.688440
vt 0.630492 0.312500
vt 0.630492 0.688440
vt 0.760984 0.312500
vt 0.760984 0.688440
vt 0.891477 0.312500
vt 0.891477 0.688440
vt 1.021969 0.312500
vt 1.021969 0.688440
vt 1.152460 0.312500
vt 1.152460 0.688440
vt 1.282953 0.312500
vt 1.282953 0.688440
vt 1.413445 0.312500
vt 1.413445 0.688440
vt 1.543937 0.312500
vt 1.543937 0.688440
vt 1.674429 0.312500
vt 1.674429 0.688440
vt 1.804921 0.312500
vt 1.804921 0.688440
vt 0.626409 0.064408
vt 0.648603 0.107966
vt 0.500000 0.150000
vt 0.591842 0.029841
vt 0.548284 0.007647
vt 0.500000 -0.000000
vt 0.451716 0.007647
vt 0.408159 0.029841
vt 0.373591 0.064409
vt 0.351397 0.107966
vt 0.343750 0.156250
vt 0.351397 0.204534
vt 0.373591 0.248091
vt 0.408159 0.282659
vt 0.451716 0.304853
vt 0.500000 0.312500
vt 0.548284 0.304853
vt 0.591841 0.282659
vt 0.626409 0.248091
vt 0.648603 0.204534
vt 0.656250 0.156250
vt 0.648603 0.892034
vt 0.626409 0.935591
vt 0.500000 0.837500
vt 0.591841 0.970159
vt 0.548284 0.992353
vt 0.500000 1.000000
vt 0.451716 0.992353
vt 0.408159 0.970159
vt 0.373591 0.935591
vt 0.351397 0.892034
vt 0.343750 0.843750
vt 0.351397 0.795466
vt 0.373591 0.751909
vt 0.408159 0.717341
vt 0.451716 0.695147
vt 0.500000 0.687500
vt 0.548284 0.695147
vt 0.591842 0.717341
vt 0.626409 0.751908
vt 0.648603 0.795466
vt 0.656250 0.843750
vn -0.951057 0.000000 0.309016
vn -0.951057 0.000000 0.309016
vn -0.809017 0.000000 0.587785
vn -0.809017 0.000000 0.587785
vn -0.809017 0.000000 0.587785
vn -0.809017 0.000000 0.587785
vn -0.587785 0.000000 0.809017
vn -0.587785 0.000000 0.809017
vn -0.587785 0.000000 0.809017
vn -0.587785 0.000000 0.809017
vn -0.309017 0.000000 0.951057
vn -0.309017 0.000000 0.951057
vn -0.309017 0.000000 0.951057
vn -0.309017 0.000000 0.951057
vn -0.000000 0.000000 1.000000
vn -0.000000 0.000000 1.000000
vn -0.000000 0.000000 1.000000
vn -0.000000 0.000000 1.000000
vn 0.309017 0.000000 0.951057
vn 0.309017 0.000000 0.951057
vn 0.309017 0.000000 0.951057
vn 0.309017 0.000000 0.951057
vn 0.587785 0.000000 0.809017
vn 0.587785 0.000000 0.809017
vn 0.587785 0.000000 0.809017
vn 0.587785 0.000000 0.809017
vn 0.809017 0.000000 0.587785
vn 0.809017 0.000000 0.587785
vn 0.809017 0.000000 0.587785
vn 0.809017 0.000000 0.587785
vn 0.951057 0.000000 0.309017
vn 0.951057 0.000000 0.309017
vn 0.951057 0.000000 0.309017
vn 0.951057 0.000000 0.309017
vn 1.000000 0.000000 0.000000
vn 1.000000 0.000000 0.000000
vn 1.000000 0.000000 0.000000
vn 1.000000 0.000000 0.000000
vn 0.951057 0.000000 -0.309017
vn 0.951057 0.000000 -0.309017
vn 0.951057 0.000000 -0.309017
vn 0.951057 0.000000 -0.309017
vn 0.809017 0.000000 -0.587786
vn 0.809017 0.000000 -0.587786
vn 0.809017 0.000000 -0.587786
vn 0.809017 0.000000 -0.587786
vn 0.587785 0.000000 -0.809017
vn 0.587785 0.000000 -0.809017
vn 0.587785 0.000000 -0.809017
vn 0.587785 0.000000 -0.809017
vn 0.309017 0.000000 -0.951057
vn 0.309017 0.000000 -0.951057
vn 0.309017 0.000000 -0.951057
vn 0.309017 0.000000 -0.951057
vn 0.000000 0.000000 -1.000000
vn 0.000000 0.000000 -1.000000
vn 0.000000 0.000000 -1.000000
vn 0.000000 0.000000 -1.000000
vn -0.309017 0.000000 -0.951057
vn -0.309017 0.000000 -0.951057
vn -0.309017 0.000000 -0.951057
vn -0.309017 0.000000 -0.951057
vn -0.587785 0.000000 -0.809017
vn -0.587785 0.000000 -0.809017
vn -0.587785 0.000000 -0.809017
vn -0.587785 0.000000 -0.809017
vn -0.809017 0.000000 -0.587785
vn -0.809017 0.000000 -0.587785
vn -0.809017 0.000000 -0.587785
vn -0.809017 0.000000 -0.587785
vn -0.951057 0.000000 -0.309017
vn -0.951057 0.000000 -0.309017
vn -0.951057 0.000000 -0.309017
vn -0.951057 0.000000 -0.309017
vn -1.000000 0.000000 -0.000001
vn -1.000000 0.000000 -0.000001
vn -1.000000 0.000000 -0.000001
vn -1.000000 0.000000 -0.000001
vn -0.951057 0.000000 0.309016
vn -0.951057 0.000000 0.309016
vn 0.000000 -1.000000 -0.000000
vn 0.000000 -1.000000 0.000000
vn 0.000000 -1.000000 -0.000000
vn 0.000000 -1.000000 -0.000000
vn 0.000000 -1.000000 -0.000000
vn 0.000000 -1.000000 -0.000000
vn 0.000000 -1.000000 -0.000000
vn 0.000000 -1.000000 -0.000000
vn 0.000000 -1.000000 -0.000000
vn 0.000000 -1.000000 -0.000000
vn 0.000000 -1.000000 -0.000000
vn 0.000000 -1.000000 -0.000000
vn 0.000000 -1.000000 -0.000000
vn 0.000000 -1.000000 -0.000000
vn 0.000000 -1.000000 -0.000000
vn 0.000000 -1.000000 -0.000000
vn 0.000000 -1.000000 -0.000000
vn 0.000000 -1.000000 -0.000000
vn 0.000000 -1.000000 -0.000000
vn 0.000000 -1.000000 -0.000000
vn 0.000000 -1.000000 -0.000000
vn 0.000000 -1.000000 -0.000000
vn 0.000000 -1.000000 -0.000000
vn 0.000000 -1.000000 -0.000000
vn 0.000000 -1.000000 -0.000000
vn 0.000000 -1.000000 -0.000000
vn 0.000000 -1.000000 -0.000000
vn 0.000000 -1.000000 -0.000000
vn 0.000000 -1.000000 -0.000000
vn 0.000000 -1.000000 -0.000000
vn 0.000000 -1.000000 -0.000000
vn 0.000000 -1.000000 -0.000000
vn 0.000000 -1.000000 -0.000000
vn 0.000000 -1.000000 -0.000000
vn 0.000000 -1.000000 -0.000000
vn 0.000000 -1.000000 -0.000000
vn 0.000000 -1.000000 -0.000000
vn 0.000000 -1.000000 -0.000000
vn 0.000000 -1.000000 -0.000000
vn 0.000000 -1.000000 -0.000000
vn 0.000000 -1.000000 -0.000000
vn 0.000000 -1.000000 -0.000000
vn 0.000000 -1.000000 -0.000000
vn 0.000000 -1.000000 -0.000000
vn 0.000000 -1.000000 -0.000000
vn 0.000000 -1.000000 -0.000000
vn 0.000000 -1.000000 -0.000000
vn 0.000000 -1.000000 -0.000000
vn 0.000000 -1.000000 -0.000000
vn 0.000000 -1.000000 -0.000000
vn 0.000000 -1.000000 -0.000000
vn 0.000000 -1.000000 -0.000000
vn 0.000000 -1.000000 -0.000000
vn 0.000000 -1.000000 -0.000000
vn 0.000000 -1.000000 0.000000
vn 0.000000 -1.000000 -0.000000
vn 0.000000 -1.000000 -0.000000
vn 0.000000 -1.000000 0.000000
vn 0.000000 -1.000000 0.000000
vn 0.000000 -1.000000 -0.000000
vn 0.000000 1.000000 0.000000
vn 0.000000 1.000000 0.000000
vn 0.000000 1.000000 0.000000
vn 0.000000 1.000000 0.000000
vn 0.000000 1.000000 0.000000
vn 0.000000 1.000000 0.000000
vn 0.000000 1.000000 0.000000
vn 0.000000 1.000000 0.000000
vn 0.000000 1.000000 0.000000
vn 0.000000 1.000000 0.000000
vn 0.000000 1.000000 0.000000
vn 0.000000 1.000000 0.000000
vn 0.000000 1.000000 0.000000
vn 0.000000 1.000000 0.000000
vn 0.000000 1.000000 0.000000
vn 0.000000 1.000000 0.000000
vn 0.000000 1.000000 0.000000
vn 0.000000 1.000000 0.000000
vn 0.000000 1.000000 0.000000
vn 0.000000 1.000000 0.000000
vn 0.000000 1.000000 0.000000
vn 0.000000 1.000000 0.000000
vn 0.000000 1.000000 0.000000
vn 0.000000 1.000000 0.000000
vn 0.000000 1.000000 0.000000
vn 0.000000 1.000000 0.000000
vn 0.000000 1.000000 0.000000
vn 0.000000 1.000000 0.000000
vn 0.000000 1.000000 0.000000
vn 0.000000 1.000000 0.000000
vn 0.000000 1.000000 0.000000
vn 0.000000 1.000000 0.000000
vn 0.000000 1.000000 0.000000
vn 0.000000 1.000000 0.000000
vn 0.000000 1.000000 0.000000
vn 0.000000 1.000000 0.000000
vn 0.000000 1.000000 0.000000
vn 0.000000 1.000000 0.000000
vn 0.000000 1.000000 0.000000
vn 0.000000 1.000000 0.000000
vn 0.000000 1.000000 0.000000
vn 0.000000 1.000000 0.000000
vn 0.000000 1.000000 0.000000
vn 0.000000 1.000000 0.000000
vn 0.000000 1.000000 0.000000
vn 0.000000 1.000000 0.000000
vn 0.000000 1.000000 0.000000
vn 0.000000 1.000000 0.000000
vn 0.000000 1.000000 0.000000
vn 0.000000 1.000000 0.000000
vn 0.000000 1.000000 0.000000
vn 0.000000 1.000000 0.000000
vn 0.000000 1.000000 0.000000
vn 0.000000 1.000000 0.000000
vn 0.000000 1.000000 0.000000
vn 0.000000 1.000000 0.000000
vn 0.000000 1.000000 0.000000
vn 0.000000 1.000000 0.000000
vn 0.000000 1.000000 0.000000
vn 0.000000 1.000000 0.000000
s off
g tablerocontrol:polySurface12 polySurface28
usemtl sillacabina:lambert10SG
f 21/1/1 1/2/2 2/3/3 22/4/4
f 22/4/5 2/3/6 3/5/7 23/6/8
f 23/6/9 3/5/10 4/7/11 24/8/12
f 24/8/13 4/7/14 5/9/15 25/10/16
f 25/10/17 5/9/18 6/11/19 26/12/20
f 26/12/21 6/11/22 7/13/23 27/14/24
f 27/14/25 7/13/26 8/15/27 28/16/28
f 28/16/29 8/15/30 9/17/31 29/18/32
f 29/18/33 9/17/34 10/19/35 30/20/36
f 30/20/37 10/19/38 11/21/39 31/22/40
f 31/22/41 11/21/42 12/23/43 32/24/44
f 32/24/45 12/23/46 13/25/47 33/26/48
f 33/26/49 13/25/50 14/27/51 34/28/52
f 34/28/53 14/27/54 15/29/55 35/30/56
f 35/30/57 15/29/58 16/31/59 36/32/60
f 36/32/61 16/31/62 17/33/63 37/34/64
f 37/34/65 17/33/66 18/35/67 38/36/68
f 38/36/69 18/35/70 19/37/71 39/38/72
f 39/38/73 19/37/74 20/39/75 40/40/76
f 40/40/77 20/39/78 1/41/79 21/42/80
usemtl sillacabina:lambert6SG
f 2/43/81 1/44/82 41/45/83
f 3/46/84 2/43/85 41/45/86
f 4/47/87 3/46/88 41/45/89
f 5/48/90 4/47/91 41/45/92
f 6/49/93 5/48/94 41/45/95
f 7/50/96 6/49/97 41/45/98
f 8/51/99 7/50/100 41/45/101
f 9/52/102 8/51/103 41/45/104
f 10/53/105 9/52/106 41/45/107
f 11/54/108 10/53/109 41/45/110
f 12/55/111 11/54/112 41/45/113
f 13/56/114 12/55/115 41/45/116
f 14/57/117 13/56/118 41/45/119
f 15/58/120 14/57/121 41/45/122
f 16/59/123 15/58/124 41/45/125
f 17/60/126 16/59/127 41/45/128
f 18/61/129 17/60/130 41/45/131
f 19/62/132 18/61/133 41/45/134
f 20/63/135 19/62/136 41/45/137
f 1/44/138 20/63/139 41/45/140
f 21/64/141 22/65/142 42/66/143
f 22/65/144 23/67/145 42/66/146
f 23/67/147 24/68/148 42/66/149
f 24/68/150 25/69/151 42/66/152
f 25/69/153 26/70/154 42/66/155
f 26/70/156 27/71/157 42/66/158
f 27/71/159 28/72/160 42/66/161
f 28/72/162 29/73/163 42/66/164
f 29/73/165 30/74/166 42/66/167
f 30/74/168 31/75/169 42/66/170
f 31/75/171 32/76/172 42/66/173
f 32/76/174 33/77/175 42/66/176
f 33/77/177 34/78/178 42/66/179
f 34/78/180 35/79/181 42/66/182
f 35/79/183 36/80/184 42/66/185
f 36/80/186 37/81/187 42/66/188
f 37/81/189 38/82/190 42/66/191
f 38/82/192 39/83/193 42/66/194
f 39/83/195 40/84/196 42/66/197
f 40/84/198 21/64/199 42/66/200
g default
v 4.440374 -0.594357 -4.048205
v 4.443256 -0.594357 -4.042547
v 4.447745 -0.594357 -4.038058
v 4.453403 -0.594357 -4.035175
v 4.459674 -0.594357 -4.034182
v 4.465945 -0.594357 -4.035175
v 4.471602 -0.594357 -4.038058
v 4.476092 -0.594357 -4.042547
v 4.478974 -0.594357 -4.048205
v 4.479967 -0.594357 -4.054476
v 4.478974 -0.594357 -4.060747
v 4.476092 -0.594357 -4.066404
v 4.471602 -0.594357 -4.070893
v 4.465945 -0.594357 -4.073776
v 4.459674 -0.594357 -4.074769
v 4.453403 -0.594357 -4.073776
v 4.447745 -0.594357 -4.070893
v 4.443256 -0.594357 -4.066404
v 4.440374 -0.594357 -4.060747
v 4.439380 -0.594357 -4.054476
v 4.440374 -0.510609 -4.048205
v 4.443256 -0.510609 -4.042547
v 4.447745 -0.510609 -4.038058
v 4.453403 -0.510609 -4.035175
v 4.459674 -0.510609 -4.034182
v 4.465945 -0.510609 -4.035175
v 4.471602 -0.510609 -4.038058
v 4.476092 -0.510609 -4.042547
v 4.478974 -0.510609 -4.048205
v 4.479967 -0.510609 -4.054476
v 4.478974 -0.510609 -4.060747
v 4.476092 -0.510609 -4.066404
v 4.471602 -0.510609 -4.070893
v 4.465945 -0.510609 -4.073776
v 4.459674 -0.510609 -4.074769
v 4.453403 -0.510609 -4.073776
v 4.447745 -0.510609 -4.070893
v 4.443256 -0.510609 -4.066404
v 4.440374 -0.510609 -4.060747
v 4.439380 -0.510609 -4.054476
v 4.459674 -0.594357 -4.054476
v 4.459674 -0.510609 -4.054476
vt 0.975529 1.000000
vt 0.975529 0.000000
vt 0.904509 0.000000
vt 0.904509 1.000000
vt 0.793893 0.000000
vt 0.793893 1.000000
vt 0.654509 0.000000
vt 0.654509 1.000000
vt 0.500000 0.000000
vt 0.500000 1.000000
vt 0.345492 0.000000
vt 0.345492 1.000000
vt 0.206107 0.000000
vt 0.206107 1.000000
vt 0.095491 0.000000
vt 0.095491 1.000000
vt 0.024472 0.000000
vt 0.024472 1.000000
vt 0.000000 0.000000
vt 0.000000 1.000000
vt 0.024472 0.000000
vt 0.024472 1.000000
vt 0.095491 0.000000
vt 0.095491 1.000000
vt 0.206107 0.000000
vt 0.206107 1.000000
vt 0.345492 0.000000
vt 0.345492 1.000000
vt 0.500000 0.000000
vt 0.500000 1.000000
vt 0.654509 0.000000
vt 0.654509 1.000000
vt 0.793893 0.000000
vt 0.793893 1.000000
vt 0.904509 0.000000
vt 0.904509 1.000000
vt 0.975528 0.000000
vt 0.975528 1.000000
vt 1.000000 0.000000
vt 1.000000 1.000000
vt 0.500000 0.000000
vt 0.500000 1.000000
vn -0.951057 0.000000 0.309016
vn -0.951057 0.000000 0.309016
vn -0.809017 0.000000 0.587785
vn -0.809017 0.000000 0.587785
vn -0.809017 0.000000 0.587785
vn -0.809017 0.000000 0.587785
vn -0.587785 0.000000 0.809017
vn -0.587785 0.000000 0.809017
vn -0.587785 0.000000 0.809017
vn -0.587785 0.000000 0.809017
vn -0.309017 0.000000 0.951057
vn -0.309017 0.000000 0.951057
vn -0.309017 0.000000 0.951057
vn -0.309017 0.000000 0.951057
vn -0.000000 0.000000 1.000000
vn -0.000000 0.000000 1.000000
vn -0.000000 0.000000 1.000000
vn -0.000000 0.000000 1.000000
vn 0.309017 0.000000 0.951057
vn 0.309017 0.000000 0.951057
vn 0.309017 0.000000 0.951057
vn 0.309017 0.000000 0.951057
vn 0.587785 0.000000 0.809017
vn 0.587785 0.000000 0.809017
vn 0.587785 0.000000 0.809017
vn 0.587785 0.000000 0.809017
vn 0.809017 0.000000 0.587785
vn 0.809017 0.000000 0.587785
vn 0.809017 0.000000 0.587785
vn 0.809017 0.000000 0.587785
vn 0.951057 0.000000 0.309017
vn 0.951057 0.000000 0.309017
vn 0.951057 0.000000 0.309017
vn 0.951057 0.000000 0.309017
vn 1.000000 0.000000 0.000000
vn 1.000000 0.000000 0.000000
vn 1.000000 0.000000 0.000000
vn 1.000000 0.000000 0.000000
vn 0.951057 0.000000 -0.309017
vn 0.951057 0.000000 -0.309017
vn 0.951057 0.000000 -0.309017
vn 0.951057 0.000000 -0.309017
vn 0.809017 0.000000 -0.587785
vn 0.809017 0.000000 -0.587785
vn 0.809017 0.000000 -0.587785
vn 0.809017 0.000000 -0.587785
vn 0.587785 0.000000 -0.809017
vn 0.587785 0.000000 -0.809017
vn 0.587785 0.000000 -0.809017
vn 0.587785 0.000000 -0.809017
vn 0.309017 0.000000 -0.951057
vn 0.309017 0.000000 -0.951057
vn 0.309017 0.000000 -0.951057
vn 0.309017 0.000000 -0.951057
vn 0.000000 0.000000 -1.000000
vn 0.000000 0.000000 -1.000000
vn 0.000000 0.000000 -1.000000
vn 0.000000 0.000000 -1.000000
vn -0.309017 0.000000 -0.951056
vn -0.309017 0.000000 -0.951056
vn -0.309017 0.000000 -0.951056
vn -0.309017 0.000000 -0.951056
vn -0.587785 0.000000 -0.809017
vn -0.587785 0.000000 -0.809017
vn -0.587785 0.000000 -0.809017
vn -0.587785 0.000000 -0.809017
vn -0.809017 0.000000 -0.587785
vn -0.809017 0.000000 -0.587785
vn -0.809017 0.000000 -0.587785
vn -0.809017 0.000000 -0.587785
vn -0.951057 0.000000 -0.309017
vn -0.951057 0.000000 -0.309017
vn -0.951057 0.000000 -0.309017
vn -0.951057 0.000000 -0.309017
vn -1.000000 0.000000 -0.000001
vn -1.000000 0.000000 -0.000001
vn -1.000000 0.000000 -0.000001
vn -1.000000 0.000000 -0.000001
vn -0.951057 0.000000 0.309016
vn -0.951057 0.000000 0.309016
vn 0.000000 -1.000000 -0.000001
vn 0.000000 -1.000000 -0.000000
vn 0.000000 -1.000000 -0.000000
vn 0.000000 -1.000000 -0.000001
vn 0.000000 -1.000000 -0.000001
vn 0.000000 -1.000000 -0.000000
vn 0.000000 -1.000000 -0.000000
vn 0.000000 -1.000000 -0.000001
vn 0.000000 -1.000000 -0.000000
vn 0.000000 -1.000000 -0.000000
vn 0.000000 -1.000000 -0.000000
vn 0.000000 -1.000000 -0.000000
vn 0.000000 -1.000000 -0.000000
vn 0.000000 -1.000000 -0.000000
vn 0.000000 -1.000000 -0.000000
vn 0.000000 -1.000000 -0.000000
vn 0.000000 -1.000000 -0.000000
vn 0.000000 -1.000000 -0.000000
vn 0.000000 -1.000000 -0.000002
vn 0.000000 -1.000000 -0.000000
vn 0.000000 -1.000000 -0.000000
vn 0.000000 -1.000000 -0.000000
vn 0.000000 -1.000000 -0.000002
vn 0.000000 -1.000000 -0.000000
vn 0.000000 -1.000000 -0.000000
vn 0.000000 -1.000000 -0.000000
vn 0.000000 -1.000000 -0.000000
vn 0.000000 -1.000000 -0.000002
vn 0.000000 -1.000000 -0.000000
vn 0.000000 -1.000000 -0.000000
vn 0.000000 -1.000000 -0.000000
vn 0.000000 -1.000000 -0.000002
vn 0.000000 -1.000000 -0.000000
vn 0.000000 -1.000000 -0.000000
vn 0.000000 -1.000000 -0.000000
vn 0.000000 -1.000000 -0.000000
vn 0.000000 -1.000000 -0.000000
vn 0.000000 -1.000000 -0.000000
vn 0.000000 -1.000000 -0.000000
vn 0.000000 -1.000000 -0.000000
vn 0.000000 -1.000000 -0.000000
vn 0.000000 -1.000000 -0.000000
vn 0.000000 -1.000000 -0.000001
vn 0.000000 -1.000000 -0.000000
vn 0.000000 -1.000000 -0.000000
vn 0.000000 -1.000000 -0.000001
vn 0.000000 -1.000000 -0.000001
vn 0.000000 -1.000000 -0.000000
vn 0.000000 -1.000000 -0.000000
vn 0.000000 -1.000000 -0.000001
vn 0.000000 -1.000000 -0.000000
vn 0.000000 -1.000000 -0.000000
vn 0.000000 -1.000000 -0.000000
vn 0.000000 -1.000000 -0.000000
vn 0.000000 -1.000000 -0.000000
vn 0.000000 -1.000000 -0.000000
vn 0.000000 -1.000000 -0.000000
vn 0.000000 -1.000000 -0.000000
vn 0.000000 -1.000000 -0.000000
vn 0.000000 -1.000000 -0.000000
vn 0.000000 1.000000 0.000000
vn 0.000000 1.000000 0.000000
vn 0.000000 1.000000 0.000000
vn 0.000000 1.000000 0.000000
vn 0.000000 1.000000 0.000000
vn 0.000000 1.000000 0.000000
vn 0.000000 1.000000 0.000000
vn 0.000000 1.000000 0.000000
vn 0.000000 1.000000 0.000000
vn 0.000000 1.000000 0.000000
vn 0.000000 1.000000 0.000000
vn 0.000000 1.000000 0.000000
vn 0.000000 1.000000 0.000000
vn 0.000000 1.000000 0.000000
vn 0.000000 1.000000 0.000000
vn 0.000000 1.000000 0.000000
vn 0.000000 1.000000 0.000000
vn 0.000000 1.000000 0.000000
vn 0.000000 1.000000 0.000000
vn 0.000000 1.000000 0.000000
vn 0.000000 1.000000 0.000000
vn 0.000000 1.000000 0.000000
vn 0.000000 1.000000 0.000000
vn 0.000000 1.000000 0.000000
vn 0.000000 1.000000 0.000000
vn 0.000000 1.000000 0.000000
vn 0.000000 1.000000 0.000000
vn 0.000000 1.000000 0.000000
vn 0.000000 1.000000 0.000000
vn 0.000000 1.000000 0.000000
vn 0.000000 1.000000 0.000000
vn 0.000000 1.000000 0.000000
vn 0.000000 1.000000 0.000000
vn 0.000000 1.000000 0.000000
vn 0.000000 1.000000 0.000000
vn 0.000000 1.000000 0.000000
vn 0.000000 1.000000 0.000000
vn 0.000000 1.000000 0.000000
vn 0.000000 1.000000 0.000000
vn 0.000000 1.000000 0.000000
vn 0.000000 1.000000 0.000000
vn 0.000000 1.000000 0.000000
vn 0.000000 1.000000 0.000000
vn 0.000000 1.000000 0.000000
vn 0.000000 1.000000 0.000000
vn 0.000000 1.000000 0.000000
vn 0.000000 1.000000 0.000000
vn 0.000000 1.000000 0.000000
vn 0.000000 1.000000 0.000000
vn 0.000000 1.000000 0.000000
vn 0.000000 1.000000 0.000000
vn 0.000000 1.000000 0.000000
vn 0.000000 1.000000 0.000000
vn 0.000000 1.000000 0.000000
vn 0.000000 1.000000 0.000000
vn 0.000000 1.000000 0.000000
vn 0.000000 1.000000 0.000000
vn 0.000000 1.000000 0.000000
vn 0.000000 1.000000 0.000000
vn 0.000000 1.000000 0.000000
s off
g polySurface28 tablerocontrol:polySurface11
usemtl sillacabina:lambert5SG
f 63/85/201 43/86/202 44/87/203 64/88/204
f 64/88/205 44/87/206 45/89/207 65/90/208
f 65/90/209 45/89/210 46/91/211 66/92/212
f 66/92/213 46/91/214 47/93/215 67/94/216
f 67/94/217 47/93/218 48/95/219 68/96/220
f 68/96/221 48/95/222 49/97/223 69/98/224
f 69/98/225 49/97/226 50/99/227 70/100/228
f 70/100/229 50/99/230 51/101/231 71/102/232
f 71/102/233 51/101/234 52/103/235 72/104/236
f 72/104/237 52/103/238 53/105/239 73/106/240
f 73/106/241 53/105/242 54/107/243 74/108/244
f 74/108/245 54/107/246 55/109/247 75/110/248
f 75/110/249 55/109/250 56/111/251 76/112/252
f 76/112/253 56/111/254 57/113/255 77/114/256
f 77/114/257 57/113/258 58/115/259 78/116/260
f 78/116/261 58/115/262 59/117/263 79/118/264
f 79/118/265 59/117/266 60/119/267 80/120/268
f 80/120/269 60/119/270 61/121/271 81/122/272
f 81/122/273 61/121/274 62/123/275 82/124/276
f 82/124/277 62/123/278 43/86/279 63/85/280
f 44/87/281 43/86/282 83/125/283
f 45/89/284 44/87/285 83/125/286
f 46/91/287 45/89/288 83/125/289
f 47/93/290 46/91/291 83/125/292
f 48/95/293 47/93/294 83/125/295
f 49/97/296 48/95/297 83/125/298
f 50/99/299 49/97/300 83/125/301
f 51/101/302 50/99/303 83/125/304
f 52/103/305 51/101/306 83/125/307
f 53/105/308 52/103/309 83/125/310
f 54/107/311 53/105/312 83/125/313
f 55/109/314 54/107/315 83/125/316
f 56/111/317 55/109/318 83/125/319
f 57/113/320 56/111/321 83/125/322
f 58/115/323 57/113/324 83/125/325
f 59/117/326 58/115/327 83/125/328
f 60/119/329 59/117/330 83/125/331
f 61/121/332 60/119/333 83/125/334
f 62/123/335 61/121/336 83/125/337
f 43/86/338 62/123/339 83/125/340
f 63/85/341 64/88/342 84/126/343
f 64/88/344 65/90/345 84/126/346
f 65/90/347 66/92/348 84/126/349
f 66/92/350 67/94/351 84/126/352
f 67/94/353 68/96/354 84/126/355
f 68/96/356 69/98/357 84/126/358
f 69/98/359 70/100/360 84/126/361
f 70/100/362 71/102/363 84/126/364
f 71/102/365 72/104/366 84/126/367
f 72/104/368 73/106/369 84/126/370
f 73/106/371 74/108/372 84/126/373
f 74/108/374 75/110/375 84/126/376
f 75/110/377 76/112/378 84/126/379
f 76/112/380 77/114/381 84/126/382
f 77/114/383 78/116/384 84/126/385
f 78/116/386 79/118/387 84/126/388
f 79/118/389 80/120/390 84/126/391
f 80/120/392 81/122/393 84/126/394
f 81/122/395 82/124/396 84/126/397
f 82/124/398 63/85/399 84/126/400
