# This file uses centimeters as units for non-parametric coordinates.

mtllib moduloPrincipal.mtl
g default
v 4.754338 -0.593037 -4.485845
v 4.936101 -0.593037 -3.986466
v 4.917586 -0.370669 -4.545257
v 5.099344 -0.370669 -4.045885
v 4.917586 -0.593037 -4.545257
v 5.099344 -0.593037 -4.045885
v 4.854300 -0.370669 -4.522223
v 5.025744 -0.370669 -4.019098
v 4.754338 -0.484812 -4.485845
v 4.936101 -0.486303 -3.986466
v 4.237105 -0.593037 -4.003829
v 4.418862 -0.593037 -4.503201
v 4.073862 -0.370669 -4.063246
v 4.255620 -0.370669 -4.562622
v 4.073862 -0.593037 -4.063246
v 4.255620 -0.593037 -4.562622
v 4.137144 -0.370669 -4.040213
v 4.329217 -0.370669 -4.535832
v 4.237105 -0.484812 -4.003829
v 4.418862 -0.486303 -4.503201
v 4.323415 -0.593037 -4.427324
v 4.854839 -0.593037 -4.427324
v 4.323415 -0.370669 -4.601043
v 4.854839 -0.370669 -4.601043
v 4.323415 -0.593037 -4.601043
v 4.854839 -0.593037 -4.601043
v 4.323415 -0.370669 -4.533700
v 4.854839 -0.370669 -4.522716
v 4.323415 -0.484812 -4.427324
v 4.854839 -0.486303 -4.427324
vt 0.000000 0.012895
vt 1.000000 0.000000
vt 1.000000 1.000000
vt 0.000000 1.000000
vt 0.039408 -0.014861
vt 0.957918 0.025679
vt 0.959838 1.027483
vt 0.048978 0.974471
vt 0.978460 0.058348
vt 0.052281 -0.047310
vt 0.013291 0.953784
vt 0.947720 1.047309
vt 0.183426 1.000000
vt 0.761045 0.864558
vt 0.928229 0.000000
vt 0.000000 1.000000
vt 0.000000 1.000000
vt 0.526834 1.000000
vt 0.526834 0.000000
vt 0.000000 0.000000
vt 1.000000 0.000000
vt 0.740160 1.000000
vt 1.000000 0.479989
vt 0.000000 0.000000
vt 0.473166 0.000000
vt 0.473166 0.486694
vt 1.000000 0.000000
vt 1.000000 0.479989
vt 1.000000 0.046031
vt 0.822758 0.904139
vt 0.061709 0.036284
vt 0.249010 0.887945
vt 0.177241 0.933979
vt 0.000000 0.075864
vt 0.243351 0.884279
vt 0.761571 0.865405
vt 0.761571 1.000000
vt 0.243351 1.000000
vt 0.000000 -0.000000
vt 0.118987 -0.000000
vt 0.118987 1.000000
vt 0.065345 1.000000
vt 0.000000 0.479988
vt 1.000001 -0.000000
vt 1.000001 0.486694
vt 0.000000 -0.000000
vt 1.000000 -0.000000
vt 1.000000 0.986220
vt 0.000000 1.000000
vt 0.000000 1.000000
vt 1.000000 1.000000
vt 1.000000 -0.000000
vt 0.000000 -0.000000
vt 1.000000 0.000000
vt 0.000000 0.000000
vt 0.000000 0.486694
vt 0.612343 1.000000
vt 1.000000 1.000000
vt 0.000000 0.000000
vt 1.000000 0.000000
vt 1.000000 1.000000
vt 0.549114 1.000000
vt 0.000000 0.479987
vt 1.000000 0.000000
vt 0.000000 0.000000
vt 0.000000 0.486694
vt 0.612297 1.000000
vt 1.000000 1.000000
vt 0.000000 1.000000
vt 1.000000 1.000000
vt 1.000000 0.000000
vt 0.000000 0.000000
vn 0.000001 1.000000 0.000000
vn 0.000001 1.000000 0.000000
vn 0.000001 1.000000 0.000000
vn 0.000001 1.000000 0.000000
vn 0.939693 0.000000 -0.342021
vn 0.939693 0.000000 -0.342021
vn 0.939693 0.000000 -0.342021
vn 0.939693 0.000000 -0.342021
vn 0.000000 -1.000000 -0.000000
vn 0.000000 -1.000000 -0.000000
vn 0.000000 -1.000000 -0.000000
vn 0.000000 -1.000000 -0.000000
vn 0.342020 0.000000 0.939693
vn 0.342020 0.000000 0.939693
vn 0.342020 0.000000 0.939693
vn 0.342019 0.000000 0.939693
vn 0.342019 0.000000 0.939693
vn -0.342020 0.000000 -0.939693
vn -0.342020 0.000000 -0.939693
vn -0.342020 0.000000 -0.939693
vn -0.342020 0.000000 -0.939693
vn -0.342020 0.000000 -0.939693
vn -0.856852 0.413967 0.307304
vn -0.857546 0.412326 0.307575
vn -0.708419 0.659817 0.250569
vn -0.708419 0.659817 0.250569
vn -0.939693 0.000000 0.342019
vn -0.939693 0.000000 0.342019
vn -0.857546 0.412326 0.307575
vn -0.856852 0.413967 0.307304
vn -0.000002 1.000000 0.000000
vn -0.000002 1.000000 0.000000
vn -0.000002 1.000000 0.000000
vn -0.000002 1.000000 0.000000
vn -0.939693 0.000000 -0.342020
vn -0.939693 0.000000 -0.342020
vn -0.939693 0.000000 -0.342020
vn -0.939693 0.000000 -0.342020
vn 0.000000 -1.000000 -0.000000
vn 0.000000 -1.000000 -0.000000
vn 0.000000 -1.000000 -0.000000
vn 0.000000 -1.000000 -0.000000
vn 0.342020 0.000000 -0.939693
vn 0.342020 0.000000 -0.939693
vn 0.342020 0.000000 -0.939693
vn 0.342020 0.000000 -0.939693
vn 0.342020 0.000000 -0.939693
vn -0.342021 0.000000 0.939692
vn -0.342021 0.000000 0.939692
vn -0.342021 0.000000 0.939692
vn -0.342021 0.000000 0.939692
vn -0.342021 0.000000 0.939692
vn 0.853919 0.413966 0.315366
vn 0.854624 0.412325 0.315604
vn 0.703743 0.659816 0.263417
vn 0.703743 0.659816 0.263417
vn 0.939693 0.000000 0.342021
vn 0.939693 0.000000 0.342021
vn 0.854624 0.412325 0.315604
vn 0.853919 0.413966 0.315366
vn 0.000000 1.000000 0.000000
vn 0.000000 1.000000 0.000000
vn 0.000000 1.000000 0.000000
vn 0.000000 1.000000 0.000000
vn 0.000000 0.000000 -1.000000
vn 0.000000 0.000000 -1.000000
vn 0.000000 0.000000 -1.000000
vn 0.000000 0.000000 -1.000000
vn 0.000000 -1.000000 -0.000000
vn 0.000000 -1.000000 -0.000000
vn 0.000000 -1.000000 -0.000000
vn 0.000000 -1.000000 -0.000000
vn 1.000000 0.000000 0.000000
vn 1.000000 0.000000 0.000000
vn 1.000000 0.000000 0.000000
vn 1.000000 0.000000 0.000000
vn 1.000000 0.000000 0.000000
vn -1.000000 -0.000001 -0.000000
vn -1.000000 -0.000001 -0.000000
vn -1.000000 -0.000001 -0.000000
vn -1.000000 -0.000001 -0.000000
vn -1.000000 -0.000001 -0.000000
vn -0.004289 0.413966 0.910282
vn -0.004272 0.412325 0.911027
vn -0.006837 0.659816 0.751396
vn -0.006837 0.659816 0.751396
vn 0.000000 0.000000 1.000000
vn 0.000000 0.000000 1.000000
vn -0.004272 0.412325 0.911027
vn -0.004289 0.413966 0.910282
s off
g tablerocontrol:pCube7
usemtl tablerocontrol:lambert4SG
f 7/14/1 8/15/2 4/29/3 3/30/4
usemtl tablerocontrol:lambert3SG
f 3/69/5 4/70/6 6/71/7 5/72/8
usemtl tablerocontrol:initialShadingGroup
f 5//9 6//10 2//11 1//12
usemtl tablerocontrol:lambert5SG
f 2/39/13 6/40/14 4/41/15 8/42/16 10/43/17
usemtl tablerocontrol:lambert3SG
f 5/64/18 1/65/19 9/66/20 7/67/21 3/68/22
usemtl tablerocontrol:lambert2SG
f 9/9/23 10/10/24 8/11/25 7/12/26
usemtl tablerocontrol:lambert5SG
f 1/44/27 2/39/28 10/43/29 9/45/30
usemtl tablerocontrol:lambert4SG
f 17/31/31 18/32/32 14/33/33 13/34/34
usemtl tablerocontrol:lambert3SG
f 13/17/35 14/18/36 16/19/37 15/20/38
usemtl tablerocontrol:initialShadingGroup
f 15//39 16//40 12//41 11//42
usemtl tablerocontrol:lambert3SG
f 12/21/43 16/19/44 14/18/45 18/22/46 20/23/47
f 15/24/48 11/25/49 19/26/50 17/13/51 13/16/52
usemtl tablerocontrol:lambert1SG
f 19/5/53 20/6/54 18/7/55 17/8/56
usemtl tablerocontrol:lambert3SG
f 11/25/57 12/27/58 20/28/59 19/26/60
usemtl tablerocontrol:lambert4SG
f 27/35/61 28/36/62 24/37/63 23/38/64
usemtl tablerocontrol:lambert3SG
f 23/50/65 24/51/66 26/52/67 25/53/68
usemtl tablerocontrol:initialShadingGroup
f 25//69 26//70 22//71 21//72
usemtl tablerocontrol:lambert3SG
f 22/59/73 26/60/74 24/61/75 28/62/76 30/63/77
f 25/54/78 21/55/79 29/56/80 27/57/81 23/58/82
usemtl lambert2SG
f 29/1/83 30/2/84 28/3/85 27/4/86
usemtl tablerocontrol:lambert3SG
f 21/46/87 22/47/88 30/48/89 29/49/90
